<svg xmlns="http://www.w3.org/2000/svg" width="51.194" height="70.693" viewBox="0 0 51.194 70.693">
  <g id="Group_5870" data-name="Group 5870" transform="translate(-657.403 -193.725)">
    <g id="Group_34" data-name="Group 34" transform="translate(674.462 193.975)" style="mix-blend-mode: normal;isolation: isolate">
      <g id="Group_29" data-name="Group 29" transform="translate(10.921 34.167)">
        <path id="Path_253" data-name="Path 253" d="M-4665.516,4735.153l10.332-6,10.677,6.163-10.332,6Z" transform="translate(4666.493 -4728.172)" fill="#fdefe6" stroke="#000" stroke-linejoin="round" stroke-width="0.5"/>
        <path id="Path_253_-_Outline" data-name="Path 253 - Outline" d="M-4664.206,4719.149a.978.978,0,0,1,.488.13l10.677,6.165a.978.978,0,0,1,.489.845.977.977,0,0,1-.486.846l-10.333,6a.976.976,0,0,1-.979,0l-10.677-6.164a.977.977,0,0,1-.488-.845.977.977,0,0,1,.486-.847l10.333-6A.962.962,0,0,1-4664.206,4719.149Zm8.727,7.145-8.726-5.038-8.383,4.872,8.725,5.038Z" transform="translate(4675.516 -4719.149)" stroke="#000" stroke-width="0.5"/>
      </g>
      <g id="Group_30" data-name="Group 30" transform="translate(21.562 40.331)">
        <path id="Path_254" data-name="Path 254" d="M-4556.6,4798.228l10.333-6-.036,12.508-10.332,6Z" transform="translate(4557.608 -4791.247)" fill="#fdefe6" stroke="#000" stroke-linejoin="round" stroke-width="0.5"/>
        <path id="Path_254_-_Outline" data-name="Path 254 - Outline" d="M-4555.285,4782.224a.981.981,0,0,1,.488.13.981.981,0,0,1,.488.851l-.036,12.508a.975.975,0,0,1-.485.841l-10.332,6a.977.977,0,0,1-.98,0,.976.976,0,0,1-.488-.849l.035-12.508a.981.981,0,0,1,.486-.843l10.333-6A.966.966,0,0,1-4555.285,4782.224Zm-1.013,12.922.029-10.244-8.374,4.866-.029,10.244Z" transform="translate(4566.631 -4782.224)" stroke="#000" stroke-width="0.5"/>
      </g>
      <g id="Group_31" data-name="Group 31" transform="translate(0 6.004)">
        <path id="Path_255" data-name="Path 255" d="M-4766.261,4447.264l-.079,27.883,10.677,6.164-.036,12.507-10.677-6.164-10.885-6.205.115-40.469Z" transform="translate(4778.238 -4440.003)" fill="#fdefe6" stroke="#000" stroke-linejoin="round" stroke-width="0.5"/>
        <path id="Path_255_-_Outline" data-name="Path 255 - Outline" d="M-4786.169,4430.98a.958.958,0,0,1,.488.132l10.885,6.284a.975.975,0,0,1,.489.85l-.077,27.315,10.187,5.882a.974.974,0,0,1,.488.849l-.035,12.508a.98.98,0,0,1-.49.845.975.975,0,0,1-.976,0l-10.677-6.164-10.881-6.2a.98.98,0,0,1-.493-.852l.115-40.471a.979.979,0,0,1,.488-.845A.981.981,0,0,1-4786.169,4430.98Zm9.906,7.826-8.934-5.159-.108,38.213,10.391,5.924,9.221,5.323.028-10.255-10.186-5.881a.976.976,0,0,1-.489-.85Z" transform="translate(4787.261 -4430.98)" stroke="#000" stroke-width="0.5"/>
      </g>
      <g id="Group_32" data-name="Group 32" transform="translate(10.921 6.285)">
        <path id="Path_256" data-name="Path 256" d="M-4665.437,4449.853l10.332-6-.079,27.882-10.332,6Z" transform="translate(4666.493 -4442.872)" fill="#fdefe6" stroke="#000" stroke-linejoin="round" stroke-width="0.5"/>
        <path id="Path_256_-_Outline" data-name="Path 256 - Outline" d="M-4664.128,4433.849a.973.973,0,0,1,.489.131.975.975,0,0,1,.489.848l-.079,27.882a.979.979,0,0,1-.487.842l-10.332,6a.979.979,0,0,1-.979,0,.976.976,0,0,1-.488-.849l.079-27.882a.976.976,0,0,1,.486-.842l10.332-6A.965.965,0,0,1-4664.128,4433.849Zm-1.054,28.3.072-25.619-8.374,4.867-.072,25.618Z" transform="translate(4675.516 -4433.849)" stroke="#000" stroke-width="0.5"/>
      </g>
      <g id="Group_33" data-name="Group 33" transform="translate(0.115 0)">
        <path id="Path_257" data-name="Path 257" d="M-4776.087,4385.548l10.332-6,10.884,6.284-10.33,6Z" transform="translate(4777.064 -4378.567)" fill="#fdefe6" stroke="#000" stroke-linejoin="round" stroke-width="0.5"/>
        <path id="Path_257_-_Outline" data-name="Path 257 - Outline" d="M-4774.778,4369.544a.982.982,0,0,1,.488.131l10.886,6.285a.975.975,0,0,1,.488.845.976.976,0,0,1-.486.846l-10.331,6a.98.98,0,0,1-.98,0l-10.886-6.284a.978.978,0,0,1-.488-.846.977.977,0,0,1,.487-.846l10.331-6A.978.978,0,0,1-4774.778,4369.544Zm8.935,7.264-8.934-5.157-8.384,4.872,8.935,5.158Z" transform="translate(4786.088 -4369.544)" stroke="#000" stroke-width="0.5"/>
      </g>
    </g>
    <g id="Group_40" data-name="Group 40" transform="translate(657.653 203.356)" style="mix-blend-mode: normal;isolation: isolate">
      <g id="Group_35" data-name="Group 35" transform="translate(10.921 34.167)">
        <path id="Path_258" data-name="Path 258" d="M-4837.515,4831.153l10.331-6,10.677,6.164-10.331,6Z" transform="translate(4838.492 -4824.172)" fill="#fdefe6" stroke="#000" stroke-linejoin="round" stroke-width="0.5"/>
        <path id="Path_258_-_Outline" data-name="Path 258 - Outline" d="M-4836.205,4815.149a.973.973,0,0,1,.488.132l10.678,6.164a.977.977,0,0,1,.488.845.979.979,0,0,1-.487.846l-10.332,6a.98.98,0,0,1-.979,0l-10.677-6.163a.981.981,0,0,1-.488-.846.973.973,0,0,1,.487-.847l10.33-6A.973.973,0,0,1-4836.205,4815.149Zm8.727,7.145-8.726-5.038-8.384,4.872,8.727,5.038Z" transform="translate(4847.515 -4815.149)" stroke="#000" stroke-width="0.5"/>
      </g>
      <g id="Group_36" data-name="Group 36" transform="translate(21.562 40.331)">
        <path id="Path_259" data-name="Path 259" d="M-4728.595,4894.229l10.332-6-.035,12.509-10.332,6Z" transform="translate(4729.607 -4887.247)" fill="#fdefe6" stroke="#000" stroke-linejoin="round" stroke-width="0.5"/>
        <path id="Path_259_-_Outline" data-name="Path 259 - Outline" d="M-4727.286,4878.224a.971.971,0,0,1,.489.132.974.974,0,0,1,.488.849l-.035,12.508a.982.982,0,0,1-.486.843l-10.332,6a.98.98,0,0,1-.979,0,.981.981,0,0,1-.488-.851l.036-12.508a.973.973,0,0,1,.485-.842l10.331-6A.975.975,0,0,1-4727.286,4878.224Zm-1.011,12.922.03-10.244-8.375,4.867-.029,10.243Z" transform="translate(4738.63 -4878.224)" stroke="#000" stroke-width="0.5"/>
      </g>
      <g id="Group_37" data-name="Group 37" transform="translate(0 6.004)">
        <path id="Path_260" data-name="Path 260" d="M-4938.261,4543.264l-.078,27.883,10.677,6.164-.036,12.507-10.676-6.164-10.887-6.205.115-40.469Z" transform="translate(4950.238 -4536.004)" fill="#fdefe6" stroke="#000" stroke-linejoin="round" stroke-width="0.5"/>
        <path id="Path_260_-_Outline" data-name="Path 260 - Outline" d="M-4958.169,4526.981a.986.986,0,0,1,.49.13l10.884,6.285a.973.973,0,0,1,.489.848l-.077,27.317,10.187,5.88a.979.979,0,0,1,.488.849l-.036,12.509a.977.977,0,0,1-.489.845.977.977,0,0,1-.977,0l-10.677-6.164-10.881-6.2a.98.98,0,0,1-.493-.852l.115-40.47a.974.974,0,0,1,.49-.844A.971.971,0,0,1-4958.169,4526.981Zm9.907,7.825-8.935-5.159-.108,38.213,10.392,5.923,9.22,5.323.029-10.254-10.187-5.882a.977.977,0,0,1-.489-.848Z" transform="translate(4959.261 -4526.981)" stroke="#000" stroke-width="0.5"/>
      </g>
      <g id="Group_38" data-name="Group 38" transform="translate(10.921 6.285)">
        <path id="Path_261" data-name="Path 261" d="M-4837.436,4545.852l10.331-6-.079,27.881-10.331,6Z" transform="translate(4838.492 -4538.872)" fill="#fdefe6" stroke="#000" stroke-linejoin="round" stroke-width="0.5"/>
        <path id="Path_261_-_Outline" data-name="Path 261 - Outline" d="M-4836.126,4529.849a.966.966,0,0,1,.487.131.972.972,0,0,1,.488.848l-.077,27.882a.981.981,0,0,1-.487.842l-10.331,6a.976.976,0,0,1-.98,0,.976.976,0,0,1-.488-.849l.079-27.882a.981.981,0,0,1,.485-.843l10.332-6A.972.972,0,0,1-4836.126,4529.849Zm-1.056,28.3.073-25.618-8.374,4.867-.074,25.618Z" transform="translate(4847.515 -4529.849)" stroke="#000" stroke-width="0.5"/>
      </g>
      <g id="Group_39" data-name="Group 39" transform="translate(0.115 0)">
        <path id="Path_262" data-name="Path 262" d="M-4948.087,4481.547l10.332-6,10.886,6.284-10.333,6Z" transform="translate(4949.064 -4474.567)" fill="#fdefe6" stroke="#000" stroke-linejoin="round" stroke-width="0.5"/>
        <path id="Path_262_-_Outline" data-name="Path 262 - Outline" d="M-4946.777,4465.544a.979.979,0,0,1,.488.131l10.886,6.284a.98.98,0,0,1,.489.845.981.981,0,0,1-.486.847l-10.333,6a.974.974,0,0,1-.979,0l-10.886-6.284a.977.977,0,0,1-.489-.846.977.977,0,0,1,.486-.846l10.333-6A.972.972,0,0,1-4946.777,4465.544Zm8.935,7.264-8.933-5.157-8.384,4.871,8.933,5.158Z" transform="translate(4958.087 -4465.544)" stroke="#000" stroke-width="0.5"/>
      </g>
    </g>
  </g>
</svg>
